<svg width="88" height="88" viewBox="0 0 88 88" fill="none" xmlns="http://www.w3.org/2000/svg">
<g filter="url(#filter0_d_25_2927)">
<circle cx="44.0001" cy="40" r="32.5" fill="#2781A8" stroke="black"/>
<g clip-path="url(#clip0_25_2927)">
<path d="M58.5628 32.1921C57.9852 31.4865 57.087 31.0577 56.1574 31.0577H36.6267L36.0179 28.7887C35.6646 27.4697 34.4469 26.5497 33.035 26.5497H29.7641C29.2191 26.5497 28.7693 26.9785 28.7693 27.5009C28.7693 28.022 29.2178 28.4521 29.7641 28.4521H33.035C33.5161 28.4521 33.9333 28.7588 34.061 29.2188L37.9734 44.1242C38.3267 45.4431 39.5444 46.3632 40.9563 46.3632H53.752C55.1627 46.3632 56.4142 45.4431 56.7349 44.1242L59.1403 34.678C59.3645 33.8179 59.1728 32.8978 58.5627 32.1922L58.5628 32.1921ZM57.1847 34.2467L54.7794 43.6928C54.6516 44.1528 54.2344 44.4595 53.7534 44.4595H40.9563C40.4752 44.4595 40.0581 44.1528 39.9303 43.6928L37.1403 32.9902H56.1589C56.4796 32.9902 56.8003 33.1435 56.9933 33.3891C57.1849 33.6335 57.2801 33.9402 57.1849 34.2469L57.1847 34.2467Z" fill="#E8D5BA"/>
<path d="M41.6308 47.5873C39.803 47.5873 38.296 49.0285 38.296 50.7762C38.296 52.5239 39.8031 53.9651 41.6308 53.9651C43.4586 53.9663 44.9655 52.5251 44.9655 50.7771C44.9655 49.0291 43.4585 47.587 41.6308 47.587V47.5873ZM41.6308 52.0342C40.8929 52.0342 40.3154 51.482 40.3154 50.7763C40.3154 50.0707 40.8929 49.5185 41.6308 49.5185C42.3687 49.5185 42.9462 50.0707 42.9462 50.7763C42.945 51.452 42.3361 52.0342 41.6308 52.0342Z" fill="#E8D5BA"/>
<path d="M52.6627 47.5873C50.8349 47.5873 49.3279 49.0284 49.3279 50.7762C49.3279 52.5239 50.835 53.965 52.6627 53.965C54.4904 53.965 55.9975 52.5239 55.9975 50.7762C55.9661 49.0295 54.4904 47.5873 52.6627 47.5873ZM52.6627 52.0342C51.9248 52.0342 51.3473 51.4819 51.3473 50.7763C51.3473 50.0707 51.9248 49.5184 52.6627 49.5184C53.4006 49.5184 53.9781 50.0707 53.9781 50.7763C53.9781 51.4519 53.368 52.0342 52.6627 52.0342Z" fill="#E8D5BA"/>
</g>
</g>
<defs>
<filter id="filter0_d_25_2927" x="0.00012207" y="0" width="88" height="88" filterUnits="userSpaceOnUse" color-interpolation-filters="sRGB">
<feFlood flood-opacity="0" result="BackgroundImageFix"/>
<feColorMatrix in="SourceAlpha" type="matrix" values="0 0 0 0 0 0 0 0 0 0 0 0 0 0 0 0 0 0 127 0" result="hardAlpha"/>
<feOffset dy="4"/>
<feGaussianBlur stdDeviation="5.5"/>
<feColorMatrix type="matrix" values="0 0 0 0 0.113725 0 0 0 0 0.121569 0 0 0 0 0.133333 0 0 0 0.1 0"/>
<feBlend mode="normal" in2="BackgroundImageFix" result="effect1_dropShadow_25_2927"/>
<feBlend mode="normal" in="SourceGraphic" in2="effect1_dropShadow_25_2927" result="shape"/>
</filter>
<clipPath id="clip0_25_2927">
<rect width="30.4615" height="30.4615" fill="white" transform="translate(28.7693 24.7693)"/>
</clipPath>
</defs>
</svg>
