<svg width="318" height="86" viewBox="0 0 318 86" fill="none" xmlns="http://www.w3.org/2000/svg">
<path d="M41.7511 45.0812C41.7686 46.017 41.5507 46.8793 41.0973 47.6679C40.644 48.4565 40.0317 49.092 39.2606 49.5745C38.4895 50.057 37.636 50.307 36.7002 50.3244L29.2135 50.4643C28.2776 50.4817 27.4024 50.264 26.5878 49.8112C25.7992 49.3578 25.1637 48.7456 24.6812 47.9745C24.1987 47.2033 23.9487 46.3499 23.9313 45.414L23.9094 44.2442C23.9002 43.7503 24.0614 43.3312 24.393 42.987C24.7501 42.6162 25.1757 42.4263 25.6696 42.417L26.7614 42.3966C27.2293 42.3879 27.6356 42.5623 27.9804 42.92C28.3506 43.2511 28.5404 43.6636 28.5496 44.1576L28.5714 45.3274C28.5739 45.4573 28.6283 45.5863 28.7347 45.7144C28.8666 45.8159 28.9976 45.8655 29.1275 45.8631L36.6142 45.7232C36.7442 45.7208 36.8602 45.6666 36.9623 45.5607C37.0638 45.4288 37.1134 45.2978 37.111 45.1679L37.0447 41.6195C37.0393 41.3335 36.906 41.154 36.6446 41.0809L27.2206 37.7463C26.174 37.4017 25.3303 36.7804 24.6894 35.8822C24.0485 34.984 23.7179 33.989 23.6975 32.8972L23.6319 29.3878C23.614 28.426 23.8317 27.5508 24.285 26.7622C24.7384 25.9736 25.3506 25.338 26.1217 24.8555C26.9188 24.3726 27.7853 24.1223 28.7212 24.1049L36.2079 23.965C37.1437 23.9475 38.0059 24.1655 38.7945 24.6188C39.5831 25.0722 40.2187 25.6844 40.7011 26.4556C41.1836 27.2267 41.4339 28.0932 41.4518 29.055L41.4715 30.1078C41.4807 30.6017 41.3065 31.021 40.9489 31.3658C40.6173 31.71 40.2045 31.8868 39.7106 31.896L38.6578 31.9157C38.1638 31.9249 37.7318 31.7639 37.3615 31.4328C37.0173 31.1012 36.8405 30.6884 36.8313 30.1945L36.8116 29.1417C36.8048 28.7777 36.6325 28.5989 36.2945 28.6052L28.8078 28.745C28.6778 28.7475 28.5488 28.8019 28.4208 28.9083C28.3188 29.0142 28.2692 29.1452 28.2721 29.3011L28.3377 32.8105C28.3435 33.1225 28.4771 33.315 28.7385 33.3882L38.2014 36.722C39.222 37.067 40.0528 37.6886 40.6937 38.5868C41.3346 39.485 41.665 40.467 41.6849 41.5328L41.7511 45.0812ZM57.0925 45.5748C57.1153 46.7966 56.7058 47.8444 55.864 48.7183C55.0476 49.5657 54.0416 50.0005 52.8458 50.0229L48.2446 50.1088C48.1146 50.1112 47.9856 50.1657 47.8576 50.2721C47.7555 50.378 47.7057 50.4959 47.7082 50.6259L47.7817 54.5642C47.7909 55.0581 47.6297 55.4772 47.2981 55.8215C46.967 56.1917 46.5544 56.3815 46.0605 56.3907L44.9687 56.4111C44.4748 56.4203 44.0425 56.2464 43.6717 55.8892C43.3275 55.5576 43.1508 55.1448 43.1415 54.6509L42.7628 34.3744C42.7478 33.5686 42.9291 32.8371 43.3069 32.1799C43.7102 31.4962 44.2332 30.9534 44.8758 30.5513C45.5184 30.1492 46.2426 29.9407 47.0485 29.9256L52.4685 29.8244C53.2744 29.8093 54.0059 29.9907 54.6631 30.3685C55.3203 30.7463 55.8501 31.2695 56.2527 31.9381C56.6547 32.5807 56.8633 33.3049 56.8784 34.1108L57.0925 45.5748ZM52.4774 44.9199L52.2925 35.0156C52.2895 34.8596 52.2221 34.7309 52.0902 34.6293C51.9843 34.5273 51.8663 34.4775 51.7364 34.4799L47.954 34.5505C47.824 34.553 47.695 34.6074 47.567 34.7138C47.465 34.8197 47.4154 34.9507 47.4183 35.1066L47.6033 45.0109C47.6057 45.1409 47.6599 45.2569 47.7658 45.3589C47.8977 45.4605 48.0287 45.51 48.1587 45.5076L51.941 45.437C52.071 45.4345 52.187 45.3804 52.289 45.2744C52.4171 45.168 52.4799 45.0498 52.4774 44.9199ZM65.4601 47.993C65.4693 48.4869 65.2954 48.9192 64.9382 49.2899C64.6066 49.6342 64.1938 49.8109 63.6999 49.8202L62.7251 49.8384C61.5293 49.8607 60.4947 49.4639 59.6213 48.6481C58.7474 47.8063 58.2991 46.7745 58.2763 45.5527L57.899 25.3542C57.8893 24.8343 58.0503 24.4022 58.3819 24.058C58.7395 23.7132 59.1653 23.5362 59.6592 23.527L60.751 23.5066C61.2449 23.4974 61.664 23.6586 62.0083 23.9902C62.3785 24.3214 62.5685 24.7469 62.5782 25.2668L62.9416 44.7244C62.9479 45.0624 63.1071 45.2284 63.419 45.2226L63.614 45.219C64.1079 45.2097 64.527 45.3709 64.8712 45.7026C65.2415 46.0337 65.4315 46.4592 65.4412 46.9791L65.4601 47.993ZM80.6483 45.1348C80.6711 46.3566 80.2616 47.4045 79.4198 48.2783C78.6035 49.1257 77.5974 49.5606 76.4017 49.5829L70.9816 49.6841C69.7858 49.7065 68.7512 49.3097 67.8778 48.4939C67.004 47.6521 66.5556 46.6203 66.5328 45.3985L66.4534 41.1482C66.4384 40.3424 66.62 39.6238 66.9982 38.9927C67.402 38.335 67.9252 37.8052 68.5678 37.4031C69.2104 37.001 69.9347 36.7925 70.7405 36.7774L75.3417 36.6915C75.4717 36.689 75.5877 36.6349 75.6898 36.5289C75.8178 36.4225 75.8804 36.2913 75.8774 36.1354L75.8483 34.5756C75.8454 34.4197 75.778 34.2909 75.6461 34.1893C75.5401 34.0873 75.4222 34.0375 75.2922 34.0399L70.691 34.1259C70.1971 34.1351 69.765 33.9741 69.3948 33.643C69.0505 33.3114 68.8738 32.8986 68.8646 32.4047L68.8449 31.3519C68.8352 30.8319 68.9961 30.3999 69.3278 30.0556C69.6849 29.6849 70.1104 29.4949 70.6043 29.4857L76.0244 29.3844C76.8303 29.3694 77.5618 29.5508 78.2189 29.9286C78.8761 30.3063 79.406 30.8295 79.8085 31.4981C80.2106 32.1407 80.4192 32.865 80.4342 33.6708L80.6483 45.1348ZM76.0333 44.4799L75.983 41.7894C75.9806 41.6594 75.9134 41.5436 75.7815 41.4421C75.6756 41.34 75.5576 41.2902 75.4277 41.2927L71.6453 41.3633C71.5154 41.3657 71.3863 41.4201 71.2583 41.5266C71.1563 41.6325 71.1065 41.7504 71.1089 41.8804L71.1591 44.5709C71.1616 44.7009 71.2157 44.8169 71.3217 44.919C71.4536 45.0205 71.5845 45.0701 71.7145 45.0677L75.4969 44.997C75.6268 44.9946 75.7428 44.9404 75.8449 44.8345C75.9729 44.7281 76.0357 44.6099 76.0333 44.4799ZM95.9867 44.8484C96.0095 46.0701 95.6 47.118 94.7582 47.9919C93.9418 48.8392 92.9358 49.2741 91.74 49.2964L86.3199 49.3977C85.1241 49.42 84.0896 49.0233 83.2162 48.2074C82.3423 47.3656 81.8939 46.3338 81.8711 45.112L81.8413 43.5133C81.832 43.0194 81.9932 42.6003 82.3249 42.256C82.682 41.8853 83.1075 41.6953 83.6015 41.6861L84.6933 41.6657C85.1872 41.6565 85.6065 41.8307 85.9512 42.1883C86.2955 42.5199 86.4722 42.9327 86.4815 43.4266L86.4975 44.2845C86.5038 44.6224 86.6889 44.788 87.0529 44.7812L90.8352 44.7105C90.9652 44.7081 91.0812 44.6539 91.1832 44.548C91.3113 44.4416 91.3741 44.3234 91.3716 44.1934L91.3447 42.7507C91.3408 42.5427 91.2341 42.4017 91.0247 42.3276L85.3372 40.6395C84.2906 40.295 83.4211 39.6871 82.7287 38.8159C82.0623 37.9442 81.7187 36.9494 81.6978 35.8316L81.657 33.648C81.642 32.8421 81.8233 32.1106 82.2011 31.4535C82.6049 30.7958 83.1281 30.2659 83.7707 29.8639C84.4128 29.4358 85.1368 29.2142 85.9427 29.1992L91.3627 29.098C92.1686 29.0829 92.9004 29.2773 93.558 29.6811C94.2152 30.0589 94.7448 30.5691 95.1469 31.2117C95.5489 31.8543 95.7575 32.5785 95.7726 33.3844L95.8017 34.9441C95.8109 35.438 95.6499 35.8701 95.3188 36.2403C94.9872 36.5846 94.5744 36.7613 94.0805 36.7705L92.9887 36.7909C92.4948 36.8002 92.0757 36.639 91.7314 36.3073C91.3867 35.9497 91.2097 35.5239 91.2005 35.03L91.1866 34.2892C91.1837 34.1332 91.1163 34.0044 90.9844 33.9029C90.8785 33.8008 90.7605 33.751 90.6305 33.7534L86.8482 33.8241C86.4843 33.8309 86.3057 34.0163 86.3125 34.3802L86.338 35.745C86.3428 36.0049 86.4497 36.1589 86.6587 36.207L92.3462 37.8951C93.4183 38.2132 94.2746 38.8083 94.915 39.6805C95.5814 40.5522 95.925 41.5469 95.9459 42.6647L95.9867 44.8484ZM111.373 47.1354C111.382 47.6294 111.221 48.0614 110.89 48.4317C110.559 48.7759 110.146 48.9527 109.652 48.9619L108.56 48.9823C108.066 48.9915 107.647 48.8303 107.303 48.4987C106.958 48.1411 106.781 47.7153 106.772 47.2214L106.525 34.0027C106.522 33.8467 106.455 33.7179 106.323 33.6164C106.217 33.5143 106.099 33.4645 105.969 33.467L102.187 33.5376C102.057 33.54 101.928 33.5945 101.8 33.7009C101.697 33.8068 101.648 33.9377 101.651 34.0937L101.898 47.3124C101.907 47.8063 101.746 48.2384 101.415 48.6087C101.083 48.9529 100.67 49.1296 100.177 49.1389L99.0847 49.1593C98.5908 49.1685 98.1587 49.0075 97.7885 48.6764C97.4437 48.3188 97.2668 47.893 97.2575 47.3991L96.8322 24.627C96.8225 24.1071 96.9835 23.6751 97.3151 23.3308C97.6727 22.9861 98.0985 22.8091 98.5924 22.7999L99.6842 22.7795C100.178 22.7702 100.597 22.9314 100.941 23.2631C101.286 23.5947 101.463 24.0205 101.472 24.5404L101.545 28.4397C101.548 28.5697 101.602 28.6857 101.708 28.7877C101.839 28.8633 101.97 28.8999 102.1 28.8974L106.701 28.8115C107.507 28.7964 108.238 28.9778 108.896 29.3556C109.553 29.7334 110.083 30.2566 110.485 30.9252C110.887 31.5678 111.096 32.292 111.111 33.0979L111.373 47.1354ZM130.417 31.255C130.426 31.749 130.265 32.168 129.934 32.5123C129.602 32.8565 129.176 33.0335 128.656 33.0432L124.562 33.1197C124.224 33.126 124.058 33.3111 124.065 33.6751L124.312 46.8938C124.321 47.3877 124.147 47.82 123.79 48.1907C123.459 48.535 123.046 48.7117 122.552 48.721L121.46 48.7414C120.966 48.7506 120.534 48.5896 120.164 48.2585C119.819 47.9008 119.642 47.4751 119.633 46.9812L119.255 26.7437C119.24 25.9378 119.421 25.2063 119.799 24.5491C120.203 23.8915 120.726 23.3616 121.369 22.9596C122.011 22.5575 122.735 22.3489 123.541 22.3339L128.454 22.2421C128.974 22.2324 129.406 22.3934 129.751 22.725C130.095 23.0566 130.272 23.4824 130.282 24.0023L130.301 25.0551C130.311 25.549 130.15 25.9811 129.818 26.3514C129.487 26.6956 129.061 26.8726 128.541 26.8823L124.447 26.9588C124.109 26.9651 123.943 27.1372 123.949 27.4752L123.96 28.0211C123.965 28.333 124.137 28.4858 124.475 28.4795L128.57 28.403C129.089 28.3933 129.522 28.5673 129.867 28.9249C130.211 29.2565 130.388 29.6823 130.397 30.2022L130.417 31.255ZM143.216 31.016C143.225 31.5099 143.064 31.929 142.732 32.2732C142.401 32.6175 141.988 32.7942 141.494 32.8035L136.854 32.8901C136.516 32.8964 136.35 33.0816 136.357 33.4455L136.604 46.6642C136.613 47.1581 136.439 47.5904 136.082 47.9612C135.751 48.3054 135.338 48.4822 134.844 48.4914L133.752 48.5118C133.258 48.521 132.839 48.3598 132.495 48.0282C132.15 47.6705 131.973 47.2448 131.964 46.7509L131.702 32.7133C131.687 31.9074 131.868 31.1759 132.246 30.5188C132.623 29.8356 133.133 29.293 133.776 28.8909C134.418 28.4888 135.143 28.2803 135.948 28.2652L141.407 28.1633C141.901 28.154 142.321 28.3282 142.665 28.6859C143.01 29.0175 143.187 29.4433 143.196 29.9632L143.216 31.016ZM158.779 43.6756C158.802 44.8974 158.393 45.9452 157.551 46.8191C156.735 47.6665 155.729 48.1013 154.533 48.1236L149.113 48.2249C147.917 48.2472 146.882 47.8505 146.009 47.0346C145.135 46.1928 144.687 45.161 144.664 43.9392L144.45 32.4752C144.435 31.6693 144.616 30.9378 144.994 30.2807C145.397 29.597 145.92 29.0542 146.563 28.6521C147.205 28.25 147.93 28.0415 148.735 28.0264L154.155 27.9252C154.961 27.9101 155.693 28.0915 156.35 28.4693C157.007 28.8471 157.537 29.3703 157.94 30.0389C158.342 30.6815 158.55 31.4057 158.565 32.2116L158.779 43.6756ZM154.164 43.0206L153.979 33.1164C153.976 32.9604 153.909 32.8316 153.777 32.7301C153.671 32.628 153.553 32.5782 153.423 32.5807L149.641 32.6513C149.511 32.6537 149.382 32.7081 149.254 32.8146C149.152 32.9205 149.102 33.0514 149.105 33.2074L149.29 43.1117C149.293 43.2416 149.347 43.3577 149.453 43.4597C149.585 43.5613 149.716 43.6108 149.846 43.6084L153.628 43.5377C153.758 43.5353 153.874 43.4811 153.976 43.3752C154.104 43.2688 154.167 43.1506 154.164 43.0206ZM179.04 45.8716C179.049 46.3655 178.875 46.7978 178.518 47.1686C178.186 47.5128 177.774 47.6896 177.28 47.6988L176.188 47.7192C175.694 47.7284 175.262 47.5675 174.892 47.2363C174.547 46.8787 174.37 46.4529 174.361 45.959L174.114 32.7403C174.107 32.3764 173.935 32.1976 173.597 32.2039L172.076 32.2323C171.764 32.2381 171.612 32.423 171.618 32.7869L171.865 46.0056C171.874 46.4995 171.701 46.9319 171.343 47.3026C171.012 47.6468 170.599 47.8236 170.105 47.8328L169.052 47.8525C168.558 47.8617 168.126 47.7007 167.756 47.3696C167.411 47.012 167.234 46.5862 167.225 46.0923L166.978 32.8736C166.971 32.5096 166.812 32.3306 166.5 32.3364L164.979 32.3648C164.641 32.3711 164.476 32.5563 164.483 32.9202L164.729 46.1389C164.739 46.6328 164.565 47.0651 164.208 47.4359C163.876 47.7801 163.463 47.9569 162.969 47.9661L161.877 47.9865C161.384 47.9957 160.951 47.8347 160.581 47.5036C160.237 47.146 160.06 46.7202 160.05 46.2263L159.788 32.1887C159.773 31.3829 159.954 30.6514 160.332 29.9942C160.736 29.3105 161.258 28.7677 161.901 28.3656C162.544 27.9635 163.268 27.755 164.074 27.7399L167.154 27.6824C167.726 27.6717 168.248 27.779 168.721 28.0042C169.034 28.0764 169.359 28.0703 169.695 27.986C170.159 27.7433 170.677 27.6166 171.249 27.6059L174.329 27.5484C175.135 27.5333 175.866 27.7147 176.524 28.0925C177.181 28.4703 177.711 28.9935 178.113 29.6621C178.541 30.3042 178.763 31.0282 178.778 31.8341L179.04 45.8716ZM198.843 45.5017C198.852 45.9957 198.691 46.4277 198.36 46.798C198.028 47.1422 197.615 47.319 197.122 47.3282L191.663 47.4302C190.467 47.4525 189.432 47.0558 188.559 46.2399C187.711 45.3976 187.276 44.3656 187.253 43.1438L186.875 22.9453C186.866 22.4254 187.027 21.9933 187.358 21.649C187.69 21.3048 188.103 21.1281 188.597 21.1188L189.688 21.0984C190.182 21.0892 190.601 21.2504 190.946 21.582C191.316 21.9132 191.506 22.3387 191.516 22.8586L191.588 26.7579C191.594 27.0699 191.766 27.2227 192.104 27.2164L196.744 27.1297C197.238 27.1205 197.658 27.2947 198.002 27.6523C198.347 27.984 198.524 28.4097 198.533 28.9296L198.553 29.9825C198.561 30.4244 198.4 30.8435 198.069 31.2397C197.686 31.5849 197.273 31.7617 196.831 31.7699L192.191 31.8566C191.853 31.8629 191.687 32.048 191.694 32.412L191.879 42.3162C191.885 42.6542 192.057 42.82 192.395 42.8137L197.036 42.727C197.53 42.7178 197.949 42.879 198.293 43.2106C198.637 43.5422 198.814 43.968 198.824 44.4879L198.843 45.5017ZM214.164 45.2156C214.174 45.7095 214.013 46.1416 213.681 46.5118C213.35 46.8561 212.937 47.0328 212.443 47.042L211.351 47.0624C210.857 47.0717 210.438 46.9105 210.094 46.5788C209.749 46.2212 209.572 45.7954 209.563 45.3015L209.316 32.0828C209.313 31.9269 209.246 31.7981 209.114 31.6965C209.008 31.5945 208.89 31.5447 208.76 31.5471L204.978 31.6178C204.848 31.6202 204.719 31.6746 204.591 31.781C204.489 31.8869 204.439 32.0179 204.442 32.1739L204.689 45.3926C204.698 45.8865 204.537 46.3186 204.206 46.6888C203.874 47.0331 203.462 47.2098 202.968 47.219L201.876 47.2394C201.382 47.2486 200.95 47.0877 200.58 46.7565C200.235 46.3989 200.058 45.9731 200.049 45.4792L199.623 22.7072C199.614 22.1873 199.775 21.7552 200.106 21.4109C200.464 21.0662 200.89 20.8892 201.384 20.88L202.475 20.8596C202.969 20.8504 203.388 21.0116 203.733 21.3432C204.077 21.6748 204.254 22.1006 204.264 22.6205L204.336 26.5198C204.339 26.6498 204.393 26.7658 204.499 26.8679C204.63 26.9434 204.761 26.98 204.891 26.9776L209.492 26.8916C210.298 26.8766 211.03 27.058 211.687 27.4357C212.344 27.8135 212.874 28.3367 213.276 29.0053C213.679 29.6479 213.887 30.3722 213.902 31.178L214.164 45.2156ZM229.32 35.1418C229.334 35.9217 229.153 36.6532 228.776 37.3364C228.398 37.9935 227.888 38.5361 227.246 38.9642C226.603 39.3663 225.879 39.5748 225.073 39.5899L220.472 39.6758C220.342 39.6783 220.213 39.7327 220.085 39.8391C219.982 39.919 219.932 40.024 219.935 40.1539L219.965 41.7917C219.968 41.9216 220.022 42.0376 220.128 42.1397C220.26 42.2412 220.391 42.2908 220.521 42.2884L225.122 42.2024C225.616 42.1932 226.035 42.3544 226.379 42.686C226.749 43.0172 226.939 43.4427 226.949 43.9626L226.968 44.9764C226.977 45.4704 226.803 45.9027 226.446 46.2734C226.115 46.6177 225.702 46.7944 225.208 46.8036L219.788 46.9049C218.592 46.9272 217.557 46.5305 216.684 45.7146C215.81 44.8728 215.362 43.841 215.339 42.6192L215.125 31.1552C215.11 30.3493 215.291 29.6178 215.669 28.9607C216.073 28.303 216.596 27.7731 217.239 27.3711C217.881 26.943 218.605 26.7214 219.411 26.7064L224.831 26.6052C225.637 26.5901 226.368 26.7845 227.026 27.1883C227.683 27.5661 228.213 28.0763 228.615 28.7189C229.017 29.3615 229.225 30.0857 229.24 30.8916L229.32 35.1418ZM224.704 34.4479L224.655 31.7963C224.652 31.6404 224.584 31.5116 224.452 31.4101C224.346 31.308 224.228 31.2582 224.098 31.2606L220.316 31.3313C220.186 31.3337 220.057 31.3881 219.929 31.4945C219.827 31.6005 219.778 31.7314 219.78 31.8874L219.83 34.5389C219.832 34.6429 219.886 34.7459 219.992 34.848C220.124 34.9495 220.255 34.9991 220.385 34.9966L224.167 34.926C224.297 34.9236 224.413 34.8694 224.515 34.7635C224.643 34.6571 224.706 34.5519 224.704 34.4479ZM254.898 30.7634C254.915 31.6992 254.697 32.5615 254.244 33.3501C253.817 34.1382 253.217 34.7735 252.446 35.256C251.675 35.7385 250.809 35.9887 249.847 36.0066L242.672 36.1406C242.36 36.1465 242.207 36.3184 242.214 36.6563L242.364 44.6889C242.373 45.1828 242.199 45.6151 241.842 45.9859C241.51 46.3301 241.097 46.5069 240.604 46.5161L239.551 46.5358C239.057 46.545 238.625 46.384 238.254 46.0529C237.91 45.6952 237.733 45.2695 237.724 44.7756L237.298 22.0035C237.289 21.4836 237.449 21.0515 237.781 20.7073C238.139 20.3626 238.564 20.1856 239.058 20.1763L249.548 19.9804C250.509 19.9625 251.385 20.1802 252.173 20.6335C252.962 21.0869 253.584 21.6994 254.041 22.471C254.523 23.2421 254.774 24.1086 254.792 25.0704L254.898 30.7634ZM250.297 30.8493L250.19 25.1563C250.184 24.7924 249.998 24.6138 249.634 24.6206L242.459 24.7546C242.148 24.7605 241.995 24.9323 242.001 25.2703L242.108 31.0023C242.114 31.3402 242.274 31.5063 242.585 31.5005L249.76 31.3665C250.124 31.3597 250.303 31.1873 250.297 30.8493ZM270.405 41.5907C270.428 42.8125 270.018 43.8603 269.177 44.7342C268.36 45.5816 267.354 46.0165 266.158 46.0388L260.738 46.14C259.543 46.1624 258.508 45.7656 257.635 44.9498C256.761 44.1079 256.312 43.0761 256.29 41.8544L256.21 37.6041C256.195 36.7982 256.377 36.0797 256.755 35.4485C257.159 34.7909 257.682 34.261 258.325 33.859C258.967 33.4569 259.691 33.2483 260.497 33.2333L265.098 33.1473C265.228 33.1449 265.344 33.0907 265.447 32.9848C265.575 32.8784 265.637 32.7472 265.634 32.5912L265.605 31.0315C265.602 30.8755 265.535 30.7468 265.403 30.6452C265.297 30.5432 265.179 30.4934 265.049 30.4958L260.448 30.5817C259.954 30.591 259.522 30.43 259.152 30.0989C258.807 29.7672 258.631 29.3545 258.621 28.8605L258.602 27.8077C258.592 27.2878 258.753 26.8557 259.085 26.5115C259.442 26.1408 259.867 25.9508 260.361 25.9415L265.781 25.8403C266.587 25.8253 267.319 26.0066 267.976 26.3844C268.633 26.7622 269.163 27.2854 269.565 27.954C269.967 28.5966 270.176 29.3209 270.191 30.1267L270.405 41.5907ZM265.79 40.9358L265.74 38.2453C265.737 38.1153 265.67 37.9995 265.538 37.898C265.432 37.7959 265.314 37.7461 265.184 37.7485L261.402 37.8192C261.272 37.8216 261.143 37.876 261.015 37.9824C260.913 38.0884 260.863 38.2063 260.866 38.3363L260.916 41.0268C260.918 41.1568 260.973 41.2728 261.078 41.3748C261.21 41.4764 261.341 41.526 261.471 41.5235L265.254 41.4529C265.384 41.4505 265.5 41.3963 265.602 41.2904C265.73 41.184 265.792 41.0658 265.79 40.9358ZM285.743 41.3042C285.766 42.526 285.357 43.5739 284.515 44.4477C283.699 45.2951 282.693 45.73 281.497 45.7523L276.077 45.8535C274.881 45.8759 273.846 45.4791 272.973 44.6633C272.099 43.8215 271.651 42.7897 271.628 41.5679L271.598 39.9692C271.589 39.4752 271.75 39.0562 272.082 38.7119C272.439 38.3412 272.864 38.1512 273.358 38.142L274.45 38.1216C274.944 38.1124 275.363 38.2866 275.708 38.6442C276.052 38.9758 276.229 39.3886 276.238 39.8825L276.254 40.7403C276.261 41.0783 276.446 41.2439 276.81 41.2371L280.592 41.1664C280.722 41.164 280.838 41.1098 280.94 41.0039C281.068 40.8975 281.131 40.7793 281.128 40.6493L281.101 39.2066C281.098 38.9986 280.991 38.8576 280.781 38.7835L275.094 37.0954C274.047 36.7509 273.178 36.143 272.485 35.2718C271.819 34.4001 271.475 33.4053 271.455 32.2875L271.414 30.1039C271.399 29.298 271.58 28.5665 271.958 27.9093C272.362 27.2517 272.885 26.7218 273.527 26.3197C274.17 25.8917 274.894 25.6701 275.699 25.6551L281.119 25.5538C281.925 25.5388 282.657 25.7332 283.315 26.1369C283.972 26.5147 284.502 27.0249 284.904 27.6675C285.306 28.3101 285.514 29.0344 285.529 29.8402L285.558 31.4C285.568 31.8939 285.407 32.326 285.076 32.6962C284.744 33.0405 284.331 33.2172 283.837 33.2264L282.745 33.2468C282.252 33.256 281.832 33.0948 281.488 32.7632C281.143 32.4056 280.966 31.9798 280.957 31.4859L280.943 30.745C280.94 30.5891 280.873 30.4603 280.741 30.3587C280.635 30.2567 280.517 30.2069 280.387 30.2093L276.605 30.28C276.241 30.2868 276.062 30.4721 276.069 30.8361L276.095 32.2008C276.1 32.4608 276.206 32.6148 276.415 32.6629L282.103 34.351C283.175 34.669 284.031 35.2642 284.672 36.1364C285.338 37.0081 285.682 38.0028 285.703 39.1206L285.743 41.3042ZM298.595 43.6387C298.605 44.1326 298.444 44.5646 298.112 44.9349C297.781 45.2791 297.368 45.4559 296.874 45.4651L291.415 45.5671C290.219 45.5894 289.185 45.1927 288.311 44.3768C287.463 43.5345 287.028 42.5025 287.005 41.2807L286.628 21.0822C286.618 20.5623 286.779 20.1302 287.111 19.7859C287.442 19.4417 287.855 19.265 288.349 19.2557L289.441 19.2353C289.935 19.2261 290.354 19.3873 290.698 19.7189C291.068 20.0501 291.258 20.4756 291.268 20.9955L291.341 24.8948C291.347 25.2068 291.519 25.3596 291.857 25.3533L296.497 25.2666C296.991 25.2574 297.41 25.4316 297.755 25.7892C298.099 26.1209 298.276 26.5466 298.286 27.0665L298.305 28.1194C298.314 28.5613 298.152 28.9804 297.822 29.3766C297.438 29.7218 297.025 29.8986 296.584 29.9068L291.943 29.9935C291.605 29.9998 291.44 30.1849 291.447 30.5489L291.632 40.4531C291.638 40.7911 291.81 40.9569 292.148 40.9506L296.788 40.8639C297.282 40.8547 297.701 41.0159 298.045 41.3475C298.39 41.6791 298.567 42.1049 298.576 42.6248L298.595 43.6387Z" fill="#2781A8"/>
<path d="M8.58972 2.88232C10.2324 3.10162 12.1023 6.50014 13.0182 7.61361C16.1618 11.4353 19.283 15.2273 22.1512 19.2617" stroke="#2781A8" stroke-width="3" stroke-linecap="round"/>
<path d="M35.5858 14.4419C35.6834 11.4911 36.2808 8.52175 36.6617 5.59789" stroke="#2781A8" stroke-width="3" stroke-linecap="round"/>
<path d="M51.3026 19.4859C52.8299 15.3634 54.6383 11.9132 57.4128 8.45779" stroke="#2781A8" stroke-width="3" stroke-linecap="round"/>
<path d="M31.4121 62.7664C30.1214 65.0761 29.5935 67.9065 29.0049 70.452C27.9534 74.9997 27.0824 79.5894 26.1917 84.1702" stroke="#2781A8" stroke-width="3" stroke-linecap="round"/>
<path d="M14.3169 58.5018C14.2578 58.0886 13.176 59.1844 13.0987 59.2558C11.5945 60.6459 10.484 62.2934 9.35742 63.9833" stroke="#2781A8" stroke-width="3" stroke-linecap="round"/>
<path d="M51.2463 64.2444C52.9243 64.9966 54.1569 66.7417 55.2777 68.1162C58.2861 71.8058 60.9887 75.7861 63.7754 79.6447" stroke="#2781A8" stroke-width="3" stroke-linecap="round"/>
<path d="M10.9678 34.098C8.43242 32.1592 5.18948 31.0784 2.354 29.6606" stroke="#2781A8" stroke-width="3" stroke-linecap="round"/>
</svg>
